<svg xmlns="http://www.w3.org/2000/svg" class="graphdiagram" viewBox="-2120.103615783789 -1504.929343174369 1856 1113"><g class="layer relationships"><g class="related-pair"><g class="relationship" transform="translate(-1221.3724593806267,-786.1482304763794) rotate(-38.9143467070525)"><path class="relationship" d="M 49.223429069787045 1 L 232.46408062117027 1 L 232.46408062117027 4 L 240.46408062117027 0 L 232.46408062117027 -4 L 232.46408062117027 -1 L 49.223429069787045 -1 Z" fill="rgba(0, 0, 0, 0.298039)" stroke="rgb(51, 51, 51)" stroke-width="0px"/><text class="type" text-anchor="middle" baseline-shift="30%" alignment-baseline="alphabetic" x="140.84375484547866" y="0" font-size="14px" font-family="'Helvetica Neue', Helvetica, Arial, sans-serif">APPARAIT_DANS</text></g></g><g class="related-pair"><g class="relationship" transform="translate(-1221.3724593806267,-786.1482304763794) rotate(0)"><path class="relationship" d="M 49.223429069787045 1 L 224.6950338322346 1 L 224.6950338322346 4 L 232.6950338322346 0 L 224.6950338322346 -4 L 224.6950338322346 -1 L 49.223429069787045 -1 Z" fill="rgba(0, 0, 0, 0.298039)" stroke="rgb(51, 51, 51)" stroke-width="0px"/><text class="type" text-anchor="middle" baseline-shift="30%" alignment-baseline="alphabetic" x="136.95923145101082" y="0" font-size="14px" font-family="'Helvetica Neue', Helvetica, Arial, sans-serif">NATIONALITE</text></g></g><g class="related-pair"><g class="relationship" transform="translate(-828.158380911351,-957.5492664718632) rotate(180)"><path class="relationship" d="M 34.35896725473865 1 L 140.5043536775289 1 L 140.5043536775289 4 L 148.5043536775289 0 L 140.5043536775289 -4 L 140.5043536775289 -1 L 34.35896725473865 -1 Z" fill="rgba(0, 0, 0, 0.298039)" stroke="rgb(51, 51, 51)" stroke-width="0px"/><text class="type" text-anchor="middle" baseline-shift="30%" alignment-baseline="alphabetic" transform="rotate(180)" x="-87.43166046613379" y="0" font-size="14px" font-family="'Helvetica Neue', Helvetica, Arial, sans-serif">A_PUBLIE</text></g></g><g class="related-pair"><g class="relationship" transform="translate(-853.5044403052334,-1126.3296820831283) rotate(132.66534721250252)"><path class="relationship" d="M 48.84503519594538 1 L 189.13294987797215 1 L 189.13294987797215 4 L 197.13294987797215 0 L 189.13294987797215 -4 L 189.13294987797215 -1 L 48.84503519594538 -1 Z" fill="rgba(0, 0, 0, 0.298039)" stroke="rgb(51, 51, 51)" stroke-width="0px"/><text class="type" text-anchor="middle" baseline-shift="30%" alignment-baseline="alphabetic" transform="rotate(180)" x="-118.98899253695876" y="0" font-size="14px" font-family="'Helvetica Neue', Helvetica, Arial, sans-serif">A_DESSINE</text></g></g><g class="related-pair"><g class="relationship" transform="translate(-1134.9114886951456,-1126.3296820831283) rotate(53.290221586397436)"><path class="relationship" d="M 44.89814930457975 1 L 170.13617487234322 1 L 170.13617487234322 4 L 178.13617487234322 0 L 170.13617487234322 -4 L 170.13617487234322 -1 L 44.89814930457975 -1 Z" fill="rgba(0, 0, 0, 0.298039)" stroke="rgb(51, 51, 51)" stroke-width="0px"/><text class="type" text-anchor="middle" baseline-shift="30%" alignment-baseline="alphabetic" x="107.51716208846148" y="0" font-size="14px" font-family="'Helvetica Neue', Helvetica, Arial, sans-serif">A_ECRIT</text></g></g><g class="related-pair"><g class="relationship" transform="translate(-1221.3724593806267,-786.1482304763794) rotate(180)"><path class="relationship" d="M 49.223429069787045 1 L 232.10683571690797 1 L 232.10683571690797 4 L 240.10683571690797 0 L 232.10683571690797 -4 L 232.10683571690797 -1 L 49.223429069787045 -1 Z" fill="rgba(0, 0, 0, 0.298039)" stroke="rgb(51, 51, 51)" stroke-width="0px"/><text class="type" text-anchor="middle" baseline-shift="30%" alignment-baseline="alphabetic" transform="rotate(180)" x="-140.6651323933475" y="0" font-size="14px" font-family="'Helvetica Neue', Helvetica, Arial, sans-serif">PERSONNAGE_TYPE</text></g></g><g class="related-pair"><g class="relationship" transform="translate(-1221.3724593806267,-786.1482304763794) rotate(-124.49286530332814)"><path class="relationship" d="M 49.223429069787045 1 L 257.1151852318785 1 L 257.1151852318785 4 L 265.1151852318785 0 L 257.1151852318785 -4 L 257.1151852318785 -1 L 49.223429069787045 -1 Z" fill="rgba(0, 0, 0, 0.298039)" stroke="rgb(51, 51, 51)" stroke-width="0px"/><text class="type" text-anchor="middle" baseline-shift="30%" alignment-baseline="alphabetic" transform="rotate(180)" x="-153.16930715083276" y="0" font-size="14px" font-family="'Helvetica Neue', Helvetica, Arial, sans-serif">COMPAGNON_AVENTURE</text></g></g></g><g class="layer nodes"><circle class="node node-id-0" r="26.843339544038113" fill="rgb(247, 247, 249)" stroke="rgba(0, 0, 0, 0.298039)" stroke-width="1.11111116409302px" cx="-1009.0616297149644" cy="-957.5492664718632"/><g class="caption"><text class="caption node" text-anchor="middle" alignment-baseline="central" x="-1009.0616297149644" y="-957.5492664718632" font-size="14px" font-family="'Helvetica Neue', Helvetica, Arial, sans-serif">Album</text></g><circle class="node node-id-1" r="43.667873487740536" fill="rgb(247, 247, 249)" stroke="rgba(0, 0, 0, 0.298039)" stroke-width="1.11111116409302px" cx="-1221.3724593806267" cy="-786.1482304763794"/><g class="caption"><text class="caption node" text-anchor="middle" alignment-baseline="central" x="-1221.3724593806267" y="-786.1482304763794" font-size="14px" font-family="'Helvetica Neue', Helvetica, Arial, sans-serif">Personnage</text></g><circle class="node node-id-2" r="39.596004144508605" fill="rgb(247, 247, 249)" stroke="rgba(0, 0, 0, 0.298039)" stroke-width="1.11111116409302px" cx="-943.525865821837" cy="-786.1482304763794"/><g class="caption"><text class="caption node" text-anchor="middle" alignment-baseline="central" x="-943.525865821837" y="-786.1482304763794" font-size="14px" font-family="'Helvetica Neue', Helvetica, Arial, sans-serif">Nationalite</text></g><circle class="node node-id-3" r="28.80341167269214" fill="rgb(247, 247, 249)" stroke="rgba(0, 0, 0, 0.298039)" stroke-width="1.11111116409302px" cx="-828.158380911351" cy="-957.5492664718632"/><g class="caption"><text class="caption node" text-anchor="middle" alignment-baseline="central" x="-828.158380911351" y="-957.5492664718632" font-size="14px" font-family="'Helvetica Neue', Helvetica, Arial, sans-serif">Editeur</text></g><circle class="node node-id-4" r="43.28947961389887" fill="rgb(247, 247, 249)" stroke="rgba(0, 0, 0, 0.298039)" stroke-width="1.11111116409302px" cx="-853.5044403052334" cy="-1126.3296820831283"/><g class="caption"><text class="caption node" text-anchor="middle" alignment-baseline="central" x="-853.5044403052334" y="-1126.3296820831283" font-size="14px" font-family="'Helvetica Neue', Helvetica, Arial, sans-serif">Dessinateur</text></g><circle class="node node-id-5" r="39.342593722533245" fill="rgb(247, 247, 249)" stroke="rgba(0, 0, 0, 0.298039)" stroke-width="1.11111116409302px" cx="-1134.9114886951456" cy="-1126.3296820831283"/><g class="caption"><text class="caption node" text-anchor="middle" alignment-baseline="central" x="-1134.9114886951456" y="-1126.3296820831283" font-size="14px" font-family="'Helvetica Neue', Helvetica, Arial, sans-serif">Scenariste</text></g><circle class="node node-id-6" r="58.90870582466878" fill="rgb(247, 247, 249)" stroke="rgba(0, 0, 0, 0.298039)" stroke-width="1.11111116409302px" cx="-1525.94355650425" cy="-786.1482304763794"/><g class="caption"><text class="caption node" text-anchor="middle" alignment-baseline="central" x="-1525.94355650425" y="-786.1482304763794" font-size="14px" font-family="'Helvetica Neue', Helvetica, Arial, sans-serif">PersonnageType</text></g><circle class="node node-id-7" r="43.667873487740536" fill="rgb(247, 247, 249)" stroke="rgba(0, 0, 0, 0.298039)" stroke-width="1.11111116409302px" cx="-1399.3835511350624" cy="-1045.225083270073"/><g class="caption"><text class="caption node" text-anchor="middle" alignment-baseline="central" x="-1399.3835511350624" y="-1045.225083270073" font-size="14px" font-family="'Helvetica Neue', Helvetica, Arial, sans-serif">Personnage</text></g></g><g class="layer properties"/><g class="layer overlay"><circle class="node overlay" r="27.398895126084625" stroke="none" fill="rgba(255, 255, 255, 0)" cx="-1009.0616297149644" cy="-957.5492664718632"/><circle class="node ring" r="32.398895126084625" fill="none" stroke="rgba(255, 255, 255, 0)" stroke-width="10px" cx="-1009.0616297149644" cy="-957.5492664718632"/><circle class="node overlay" r="44.223429069787045" stroke="none" fill="rgba(255, 255, 255, 0)" cx="-1221.3724593806267" cy="-786.1482304763794"/><circle class="node ring" r="49.223429069787045" fill="none" stroke="rgba(255, 255, 255, 0)" stroke-width="10px" cx="-1221.3724593806267" cy="-786.1482304763794"/><path class="relationship overlay" fill="rgba(255, 255, 255, 0)" stroke="rgba(255, 255, 255, 0)" stroke-width="10px" transform="translate(-1221.3724593806267,-786.1482304763794) rotate(-38.9143467070525)" d="M 49.223429069787045 1 L 232.46408062117027 1 L 232.46408062117027 4 L 240.46408062117027 0 L 232.46408062117027 -4 L 232.46408062117027 -1 L 49.223429069787045 -1 Z"/><circle class="node overlay" r="40.151559726555114" stroke="none" fill="rgba(255, 255, 255, 0)" cx="-943.525865821837" cy="-786.1482304763794"/><circle class="node ring" r="45.151559726555114" fill="none" stroke="rgba(255, 255, 255, 0)" stroke-width="10px" cx="-943.525865821837" cy="-786.1482304763794"/><path class="relationship overlay" fill="rgba(255, 255, 255, 0)" stroke="rgba(255, 255, 255, 0)" stroke-width="10px" transform="translate(-1221.3724593806267,-786.1482304763794) rotate(0)" d="M 49.223429069787045 1 L 224.6950338322346 1 L 224.6950338322346 4 L 232.6950338322346 0 L 224.6950338322346 -4 L 224.6950338322346 -1 L 49.223429069787045 -1 Z"/><circle class="node overlay" r="29.35896725473865" stroke="none" fill="rgba(255, 255, 255, 0)" cx="-828.158380911351" cy="-957.5492664718632"/><circle class="node ring" r="34.35896725473865" fill="none" stroke="rgba(255, 255, 255, 0)" stroke-width="10px" cx="-828.158380911351" cy="-957.5492664718632"/><path class="relationship overlay" fill="rgba(255, 255, 255, 0)" stroke="rgba(255, 255, 255, 0)" stroke-width="10px" transform="translate(-828.158380911351,-957.5492664718632) rotate(180)" d="M 34.35896725473865 1 L 140.5043536775289 1 L 140.5043536775289 4 L 148.5043536775289 0 L 140.5043536775289 -4 L 140.5043536775289 -1 L 34.35896725473865 -1 Z"/><circle class="node overlay" r="43.84503519594538" stroke="none" fill="rgba(255, 255, 255, 0)" cx="-853.5044403052334" cy="-1126.3296820831283"/><circle class="node ring" r="48.84503519594538" fill="none" stroke="rgba(255, 255, 255, 0)" stroke-width="10px" cx="-853.5044403052334" cy="-1126.3296820831283"/><path class="relationship overlay" fill="rgba(255, 255, 255, 0)" stroke="rgba(255, 255, 255, 0)" stroke-width="10px" transform="translate(-853.5044403052334,-1126.3296820831283) rotate(132.66534721250252)" d="M 48.84503519594538 1 L 189.13294987797215 1 L 189.13294987797215 4 L 197.13294987797215 0 L 189.13294987797215 -4 L 189.13294987797215 -1 L 48.84503519594538 -1 Z"/><circle class="node overlay" r="39.89814930457975" stroke="none" fill="rgba(255, 255, 255, 0)" cx="-1134.9114886951456" cy="-1126.3296820831283"/><circle class="node ring" r="44.89814930457975" fill="none" stroke="rgba(255, 255, 255, 0)" stroke-width="10px" cx="-1134.9114886951456" cy="-1126.3296820831283"/><path class="relationship overlay" fill="rgba(255, 255, 255, 0)" stroke="rgba(255, 255, 255, 0)" stroke-width="10px" transform="translate(-1134.9114886951456,-1126.3296820831283) rotate(53.290221586397436)" d="M 44.89814930457975 1 L 170.13617487234322 1 L 170.13617487234322 4 L 178.13617487234322 0 L 170.13617487234322 -4 L 170.13617487234322 -1 L 44.89814930457975 -1 Z"/><circle class="node overlay" r="59.46426140671529" stroke="none" fill="rgba(255, 255, 255, 0)" cx="-1525.94355650425" cy="-786.1482304763794"/><circle class="node ring" r="64.46426140671528" fill="none" stroke="rgba(255, 255, 255, 0)" stroke-width="10px" cx="-1525.94355650425" cy="-786.1482304763794"/><path class="relationship overlay" fill="rgba(255, 255, 255, 0)" stroke="rgba(255, 255, 255, 0)" stroke-width="10px" transform="translate(-1221.3724593806267,-786.1482304763794) rotate(180)" d="M 49.223429069787045 1 L 232.10683571690797 1 L 232.10683571690797 4 L 240.10683571690797 0 L 232.10683571690797 -4 L 232.10683571690797 -1 L 49.223429069787045 -1 Z"/><circle class="node overlay" r="44.223429069787045" stroke="none" fill="rgba(255, 255, 255, 0)" cx="-1399.3835511350624" cy="-1045.225083270073"/><circle class="node ring" r="49.223429069787045" fill="none" stroke="rgba(255, 255, 255, 0)" stroke-width="10px" cx="-1399.3835511350624" cy="-1045.225083270073"/><path class="relationship overlay" fill="rgba(255, 255, 255, 0)" stroke="rgba(255, 255, 255, 0)" stroke-width="10px" transform="translate(-1221.3724593806267,-786.1482304763794) rotate(-124.49286530332814)" d="M 49.223429069787045 1 L 257.1151852318785 1 L 257.1151852318785 4 L 265.1151852318785 0 L 257.1151852318785 -4 L 257.1151852318785 -1 L 49.223429069787045 -1 Z"/></g></svg>